<svg xmlns="http://www.w3.org/2000/svg" xmlns:xlink="http://www.w3.org/1999/xlink" width="840" height="667.88"><rect width="840" height="667.88" rx="5" ry="5" class="a"/><svg y="0%" x="0%"><circle cx="20" cy="20" r="6" fill="#ff5f58"/><circle cx="40" cy="20" r="6" fill="#ffbd2e"/><circle cx="60" cy="20" r="6" fill="#18c132"/></svg><svg height="607.88" viewBox="0 0 80 60.788" width="800" x="15" xmlns="http://www.w3.org/2000/svg" xmlns:xlink="http://www.w3.org/1999/xlink" y="50"><style>@keyframes m{0%{transform:translateX(0)}.4%{transform:translateX(-80px)}.92%{transform:translateX(-160px)}1.23%{transform:translateX(-240px)}1.24%{transform:translateX(-320px)}1.34%{transform:translateX(-560px)}4.19%{transform:translateX(-640px)}5.03%{transform:translateX(-720px)}6.66%{transform:translateX(-800px)}7.34%{transform:translateX(-880px)}8.16%{transform:translateX(-960px)}8.4%{transform:translateX(-1040px)}10.63%{transform:translateX(-1120px)}10.76%{transform:translateX(-1200px)}11.39%{transform:translateX(-1280px)}12.89%{transform:translateX(-1360px)}13.56%{transform:translateX(-1440px)}14.14%{transform:translateX(-1520px)}14.84%{transform:translateX(-1600px)}15.28%{transform:translateX(-1680px)}15.74%{transform:translateX(-1760px)}16.05%{transform:translateX(-1840px)}16.85%{transform:translateX(-1920px)}16.86%{transform:translateX(-2080px)}16.88%{transform:translateX(-2480px)}16.89%{transform:translateX(-2560px)}17%{transform:translateX(-2800px)}21.25%{transform:translateX(-2880px)}22.09%{transform:translateX(-2960px)}22.67%{transform:translateX(-3040px)}23.11%{transform:translateX(-3120px)}23.48%{transform:translateX(-3200px)}23.93%{transform:translateX(-3280px)}24.34%{transform:translateX(-3360px)}24.4%{transform:translateX(-3440px)}24.77%{transform:translateX(-3520px)}25.23%{transform:translateX(-3600px)}25.87%{transform:translateX(-3680px)}26.43%{transform:translateX(-3760px)}27.02%{transform:translateX(-3840px)}27.55%{transform:translateX(-3920px)}28.3%{transform:translateX(-4000px)}30.05%{transform:translateX(-4240px)}30.07%{transform:translateX(-4320px)}30.53%{transform:translateX(-4400px)}31%{transform:translateX(-4480px)}31.46%{transform:translateX(-4560px)}31.93%{transform:translateX(-4640px)}32.39%{transform:translateX(-4720px)}32.85%{transform:translateX(-4800px)}32.96%{transform:translateX(-5040px)}32.97%{transform:translateX(-5200px)}32.98%{transform:translateX(-5280px)}33.08%{transform:translateX(-5520px)}92.16%{transform:translateX(-5600px)}92.75%{transform:translateX(-5680px)}93.64%{transform:translateX(-5760px)}93.94%{transform:translateX(-5840px)}94.33%{transform:translateX(-5920px)}97.87%{transform:translateX(-6000px)}97.88%{transform:translateX(-6160px)}97.89%{transform:translateX(-6400px)}97.9%{transform:translateX(-6480px)}98%{transform:translateX(-6720px)}to{transform:translateX(-6800px)}}.a{fill:#001f28}.f{fill:#259286}.g{font-weight:700}.g,.h{fill:#738a05}.i{fill:#839496}.j{fill:#d11c24;font-weight:700}</style><g font-size="1.67" font-family="Monaco,Consolas,Menlo,'Bitstream Vera Sans Mono','Powerline Symbols',monospace"><defs><symbol id="1"><text y="1.67" class="f">[~/src]</text><text x="7.014" y="1.67" class="g">$</text></symbol><symbol id="2"><text y="1.67" class="f">[~/src]</text><text x="7.014" y="1.67" class="g">$</text><text x="9.018" y="1.67" class="h">deepclean</text></symbol><symbol id="3"><text y="1.67" class="f">[~/src]</text><text x="7.014" y="1.67" class="g">$</text><text x="9.018" y="1.67" class="h">deepclean</text><text x="19.038" y="1.67" class="f">--help</text></symbol><symbol id="4"><text y="1.67" class="i">Usage:</text><text x="7.014" y="1.67" class="i">deepclean</text><text x="17.034" y="1.67" class="i">[options]</text><text x="27.054" y="1.67" class="i">[dir]</text></symbol><symbol id="5"><text y="1.67" class="i">Options:</text></symbol><symbol id="6"><text x="2.004" y="1.67" class="i">-sort</text></symbol><symbol id="7"><text x="8.016" y="1.67" class="i">sort</text><text x="13.026" y="1.67" class="i">output</text></symbol><symbol id="8"><text x="2.004" y="1.67" class="i">-target</text><text x="10.02" y="1.67" class="i">string</text></symbol><symbol id="9"><text x="8.016" y="1.67" class="i">dirs</text><text x="13.026" y="1.67" class="i">to</text><text x="16.032" y="1.67" class="i">scan</text><text x="21.042" y="1.67" class="i">for</text><text x="25.05" y="1.67" class="i">(default</text><text x="34.068" y="1.67" class="i">&quot;node_modules,.bundle,target&quot;)</text></symbol><symbol id="10"><text y="1.67" class="f">[~/src]</text><text x="7.014" y="1.67" class="j">$</text></symbol><symbol id="11"><text y="1.67" class="f">[~/src]</text><text x="7.014" y="1.67" class="j">$</text><text x="9.018" y="1.67" class="h">deepclean</text></symbol><symbol id="12"><text y="1.67" class="f">[~/src]</text><text x="7.014" y="1.67" class="j">$</text><text x="9.018" y="1.67" class="h">deepclean</text><text x="19.038" y="1.67" class="f">-sort</text></symbol><symbol id="13"><text y="1.67" class="i">√</text><text x="2.004" y="1.67" class="i">....................</text></symbol><symbol id="14"><text x="2.004" y="1.67" class="i">29356</text><text x="9.018" y="1.67" class="i">132</text><text x="13.026" y="1.67" class="i">MB</text><text x="16.032" y="1.67" class="i">openlaw/docz-gatsby/node_modules</text></symbol><symbol id="15"><text x="2.004" y="1.67" class="i">26590</text><text x="9.018" y="1.67" class="i">183</text><text x="13.026" y="1.67" class="i">MB</text><text x="16.032" y="1.67" class="i">emojitracker/web-react/node_modules</text></symbol><symbol id="16"><text x="2.004" y="1.67" class="i">10796</text><text x="10.02" y="1.67" class="i">64</text><text x="13.026" y="1.67" class="i">MB</text><text x="16.032" y="1.67" class="i">blog/.bundle</text></symbol><symbol id="17"><text x="2.004" y="1.67" class="i">10696</text><text x="10.02" y="1.67" class="i">43</text><text x="13.026" y="1.67" class="i">MB</text><text x="16.032" y="1.67" class="i">mroth.info/node_modules</text></symbol><symbol id="18"><text x="3.006" y="1.67" class="i">8872</text><text x="10.02" y="1.67" class="i">56</text><text x="13.026" y="1.67" class="i">MB</text><text x="16.032" y="1.67" class="i">lolcommits/.bundle</text></symbol><symbol id="19"><text x="3.006" y="1.67" class="i">7671</text><text x="10.02" y="1.67" class="i">84</text><text x="13.026" y="1.67" class="i">MB</text><text x="16.032" y="1.67" class="i">emojitracker/rest-api/.bundle</text></symbol><symbol id="20"><text x="3.006" y="1.67" class="i">7663</text><text x="10.02" y="1.67" class="i">21</text><text x="13.026" y="1.67" class="i">MB</text><text x="16.032" y="1.67" class="i">khan/devtools/khan-linter/node_modules</text></symbol><symbol id="21"><text x="3.006" y="1.67" class="i">6625</text><text x="10.02" y="1.67" class="i">52</text><text x="13.026" y="1.67" class="i">MB</text><text x="16.032" y="1.67" class="i">lolcommits.github.io/.bundle</text></symbol><symbol id="22"><text x="3.006" y="1.67" class="i">5537</text><text x="10.02" y="1.67" class="i">48</text><text x="13.026" y="1.67" class="i">MB</text><text x="16.032" y="1.67" class="i">portfolio.mroth.info/.bundle</text></symbol><symbol id="23"><text x="3.006" y="1.67" class="i">4067</text><text x="10.02" y="1.67" class="i">19</text><text x="13.026" y="1.67" class="i">MB</text><text x="16.032" y="1.67" class="i">emojitracker/web/.bundle</text></symbol><symbol id="24"><text x="3.006" y="1.67" class="i">3744</text><text x="10.02" y="1.67" class="i">17</text><text x="13.026" y="1.67" class="i">MB</text><text x="16.032" y="1.67" class="i">emojitracker/lib/emoji-data-rb/.bundle</text></symbol><symbol id="25"><text x="3.006" y="1.67" class="i">3731</text><text x="10.02" y="1.67" class="i">58</text><text x="13.026" y="1.67" class="i">MB</text><text x="16.032" y="1.67" class="i">openlaw/openlaw-svg-logos/node_modules</text></symbol><symbol id="26"><text x="3.006" y="1.67" class="i">3449</text><text x="10.02" y="1.67" class="i">20</text><text x="13.026" y="1.67" class="i">MB</text><text x="16.032" y="1.67" class="i">emojitracker/feeder/.bundle</text></symbol><symbol id="27"><text x="3.006" y="1.67" class="i">2736</text><text x="10.02" y="1.67" class="i">16</text><text x="13.026" y="1.67" class="i">MB</text><text x="16.032" y="1.67" class="i">go/src/github.com/mroth/scmpuff/.bundle</text></symbol><symbol id="28"><text x="3.006" y="1.67" class="i">2547</text><text x="9.018" y="1.67" class="i">430</text><text x="13.026" y="1.67" class="i">MB</text><text x="16.032" y="1.67" class="i">twitter-streaming-showdown/rsfeeder/target</text></symbol><symbol id="29"><text x="3.006" y="1.67" class="i">2545</text><text x="10.02" y="1.67" class="i">11</text><text x="13.026" y="1.67" class="i">MB</text><text x="16.032" y="1.67" class="i">emojitracker/lib/emoji-data-js/node_modules</text></symbol><symbol id="30"><text x="3.006" y="1.67" class="i">2305</text><text x="10.02" y="1.67" class="i">16</text><text x="13.026" y="1.67" class="i">MB</text><text x="16.032" y="1.67" class="i">pullcrusher/.bundle</text></symbol><symbol id="31"><text x="3.006" y="1.67" class="i">1937</text><text x="9.018" y="1.67" class="i">5.6</text><text x="13.026" y="1.67" class="i">MB</text><text x="16.032" y="1.67" class="i">rocketworkshop/node_modules</text></symbol><symbol id="32"><text x="3.006" y="1.67" class="i">1562</text><text x="10.02" y="1.67" class="i">12</text><text x="13.026" y="1.67" class="i">MB</text><text x="16.032" y="1.67" class="i">tcli/.bundle</text></symbol><symbol id="33"><text x="3.006" y="1.67" class="i">1396</text><text x="10.02" y="1.67" class="i">13</text><text x="13.026" y="1.67" class="i">MB</text><text x="16.032" y="1.67" class="i">emojidoll/.bundle</text></symbol><symbol id="34"><text x="4.008" y="1.67" class="i">726</text><text x="9.018" y="1.67" class="i">5.5</text><text x="13.026" y="1.67" class="i">MB</text><text x="16.032" y="1.67" class="i">emojitracker/streamer-spec/node_modules</text></symbol><symbol id="35"><text x="4.008" y="1.67" class="i">590</text><text x="9.018" y="1.67" class="i">172</text><text x="13.026" y="1.67" class="i">MB</text><text x="16.032" y="1.67" class="i">termagotchi-rs/target</text></symbol><symbol id="36"><text x="4.008" y="1.67" class="i">104</text><text x="9.018" y="1.67" class="i">176</text><text x="13.026" y="1.67" class="i">kB</text><text x="16.032" y="1.67" class="i">twurl/.bundle</text></symbol><symbol id="37"><text y="1.67" class="i">Total</text><text x="6.012" y="1.67" class="i">cleanable</text><text x="16.032" y="1.67" class="i">discovered:</text><text x="28.056" y="1.67" class="i">145245</text><text x="35.07" y="1.67" class="i">files,</text><text x="42.084" y="1.67" class="i">1.5</text><text x="46.092" y="1.67" class="i">GB</text></symbol><symbol id="38"><text y="1.67" class="f">[~/src]</text><text x="7.014" y="1.67" class="g">$</text><text x="9.018" y="1.67" class="h">clear</text></symbol><symbol id="a"><path fill="transparent" d="M0 0h80v28H0z"/></symbol><symbol id="b"><path fill="#586e75" d="M0 0h1.102v2.171H0z"/></symbol></defs><path class="a" d="M0 0h80v60.788H0z"/><g style="animation-duration:21.812499s;animation-iteration-count:infinite;animation-name:m;animation-timing-function:steps(1,end)"><svg width="6880"><svg><use xlink:href="#a"/><use xlink:href="#b" x="-.004"/></svg><svg x="80"><use xlink:href="#a"/><use xlink:href="#b" x="-.004"/></svg><svg x="160"><use xlink:href="#a"/><use xlink:href="#b" x="-.004"/></svg><svg x="240"><use xlink:href="#a"/><use xlink:href="#b" x="-.004"/></svg><svg x="320"><use xlink:href="#a"/><use xlink:href="#b" x="-.004"/></svg><svg x="400"><use xlink:href="#a"/><use xlink:href="#b" x="8.996"/><use xlink:href="#1"/></svg><svg x="480"><use xlink:href="#a"/><use xlink:href="#b" x="8.996"/><use xlink:href="#1"/></svg><svg x="560"><use xlink:href="#a"/><use xlink:href="#b" x="8.996"/><use xlink:href="#1"/></svg><svg x="640"><use xlink:href="#a"/><use xlink:href="#b" x="9.996"/><text y="1.67" class="f">[~/src]</text><text x="7.014" y="1.67" class="g">$</text><text x="9.018" y="1.67" class="h">d</text></svg><svg x="720"><use xlink:href="#a"/><use xlink:href="#b" x="10.996"/><text y="1.67" class="f">[~/src]</text><text x="7.014" y="1.67" class="g">$</text><text x="9.018" y="1.67" class="j">de</text></svg><svg x="800"><use xlink:href="#a"/><use xlink:href="#b" x="11.996"/><text y="1.67" class="f">[~/src]</text><text x="7.014" y="1.67" class="g">$</text><text x="9.018" y="1.67" class="j">dee</text></svg><svg x="880"><use xlink:href="#a"/><use xlink:href="#b" x="12.996"/><text y="1.67" class="f">[~/src]</text><text x="7.014" y="1.67" class="g">$</text><text x="9.018" y="1.67" class="j">deep</text></svg><svg x="960"><use xlink:href="#a"/><use xlink:href="#b" x="13.996"/><text y="1.67" class="f">[~/src]</text><text x="7.014" y="1.67" class="g">$</text><text x="9.018" y="1.67" class="j">deepc</text></svg><svg x="1040"><use xlink:href="#a"/><use xlink:href="#b" x="14.996"/><text y="1.67" class="f">[~/src]</text><text x="7.014" y="1.67" class="g">$</text><text x="9.018" y="1.67" class="j">deepcl</text></svg><svg x="1120"><use xlink:href="#a"/><use xlink:href="#b" x="15.996"/><text y="1.67" class="f">[~/src]</text><text x="7.014" y="1.67" class="g">$</text><text x="9.018" y="1.67" class="j">deepcle</text></svg><svg x="1200"><use xlink:href="#a"/><use xlink:href="#b" x="16.996"/><text y="1.67" class="f">[~/src]</text><text x="7.014" y="1.67" class="g">$</text><text x="9.018" y="1.67" class="j">deepclea</text></svg><svg x="1280"><use xlink:href="#a"/><use xlink:href="#b" x="17.996"/><use xlink:href="#2"/></svg><svg x="1360"><use xlink:href="#a"/><use xlink:href="#b" x="18.996"/><use xlink:href="#2"/></svg><svg x="1440"><use xlink:href="#a"/><use xlink:href="#b" x="19.996"/><text y="1.67" class="f">[~/src]</text><text x="7.014" y="1.67" class="g">$</text><text x="9.018" y="1.67" class="h">deepclean</text><text x="19.038" y="1.67" class="f">-</text></svg><svg x="1520"><use xlink:href="#a"/><use xlink:href="#b" x="20.996"/><text y="1.67" class="f">[~/src]</text><text x="7.014" y="1.67" class="g">$</text><text x="9.018" y="1.67" class="h">deepclean</text><text x="19.038" y="1.67" class="f">--</text></svg><svg x="1600"><use xlink:href="#a"/><use xlink:href="#b" x="21.996"/><text y="1.67" class="f">[~/src]</text><text x="7.014" y="1.67" class="g">$</text><text x="9.018" y="1.67" class="h">deepclean</text><text x="19.038" y="1.67" class="f">--h</text></svg><svg x="1680"><use xlink:href="#a"/><use xlink:href="#b" x="22.996"/><text y="1.67" class="f">[~/src]</text><text x="7.014" y="1.67" class="g">$</text><text x="9.018" y="1.67" class="h">deepclean</text><text x="19.038" y="1.67" class="f">--he</text></svg><svg x="1760"><use xlink:href="#a"/><use xlink:href="#b" x="23.996"/><text y="1.67" class="f">[~/src]</text><text x="7.014" y="1.67" class="g">$</text><text x="9.018" y="1.67" class="h">deepclean</text><text x="19.038" y="1.67" class="f">--hel</text></svg><svg x="1840"><use xlink:href="#a"/><use xlink:href="#b" x="24.996"/><use xlink:href="#3"/></svg><svg x="1920"><use xlink:href="#a"/><use xlink:href="#b" x="24.996"/><use xlink:href="#3"/></svg><svg x="2000"><use xlink:href="#a"/><use xlink:href="#b" x="-.004" y="2.146"/><use xlink:href="#3"/></svg><svg x="2080"><use xlink:href="#a"/><use xlink:href="#b" x="-.004" y="2.146"/><use xlink:href="#3"/></svg><svg x="2160"><use xlink:href="#a"/><use xlink:href="#b" x="-.004" y="13.001"/><use xlink:href="#3"/><use xlink:href="#4" y="2.171"/><use xlink:href="#5" y="6.513"/><use xlink:href="#6" y="8.684"/><use xlink:href="#7" y="10.855"/></svg><svg x="2240"><use xlink:href="#a"/><use xlink:href="#b" x="-.004" y="17.343"/><use xlink:href="#3"/><use xlink:href="#4" y="2.171"/><use xlink:href="#5" y="6.513"/><use xlink:href="#6" y="8.684"/><use xlink:href="#7" y="10.855"/><use xlink:href="#8" y="13.026"/><use xlink:href="#9" y="15.197"/></svg><svg x="2320"><use xlink:href="#a"/><use xlink:href="#b" x="-.004" y="17.343"/><use xlink:href="#3"/><use xlink:href="#4" y="2.171"/><use xlink:href="#5" y="6.513"/><use xlink:href="#6" y="8.684"/><use xlink:href="#7" y="10.855"/><use xlink:href="#8" y="13.026"/><use xlink:href="#9" y="15.197"/></svg><svg x="2400"><use xlink:href="#a"/><use xlink:href="#b" x="-.004" y="17.343"/><use xlink:href="#3"/><use xlink:href="#4" y="2.171"/><use xlink:href="#5" y="6.513"/><use xlink:href="#6" y="8.684"/><use xlink:href="#7" y="10.855"/><use xlink:href="#8" y="13.026"/><use xlink:href="#9" y="15.197"/></svg><svg x="2480"><use xlink:href="#a"/><use xlink:href="#b" x="-.004" y="17.343"/><use xlink:href="#3"/><use xlink:href="#4" y="2.171"/><use xlink:href="#5" y="6.513"/><use xlink:href="#6" y="8.684"/><use xlink:href="#7" y="10.855"/><use xlink:href="#8" y="13.026"/><use xlink:href="#9" y="15.197"/></svg><svg x="2560"><use xlink:href="#a"/><use xlink:href="#b" x="-.004" y="17.343"/><use xlink:href="#3"/><use xlink:href="#4" y="2.171"/><use xlink:href="#5" y="6.513"/><use xlink:href="#6" y="8.684"/><use xlink:href="#7" y="10.855"/><use xlink:href="#8" y="13.026"/><use xlink:href="#9" y="15.197"/></svg><svg x="2640"><use xlink:href="#a"/><use xlink:href="#b" x="8.996" y="17.343"/><use xlink:href="#3"/><use xlink:href="#4" y="2.171"/><use xlink:href="#5" y="6.513"/><use xlink:href="#6" y="8.684"/><use xlink:href="#7" y="10.855"/><use xlink:href="#8" y="13.026"/><use xlink:href="#9" y="15.197"/><use xlink:href="#10" y="17.368"/></svg><svg x="2720"><use xlink:href="#a"/><use xlink:href="#b" x="8.996" y="17.343"/><use xlink:href="#3"/><use xlink:href="#4" y="2.171"/><use xlink:href="#5" y="6.513"/><use xlink:href="#6" y="8.684"/><use xlink:href="#7" y="10.855"/><use xlink:href="#8" y="13.026"/><use xlink:href="#9" y="15.197"/><use xlink:href="#10" y="17.368"/></svg><svg x="2800"><use xlink:href="#a"/><use xlink:href="#b" x="8.996" y="17.343"/><use xlink:href="#3"/><use xlink:href="#4" y="2.171"/><use xlink:href="#5" y="6.513"/><use xlink:href="#6" y="8.684"/><use xlink:href="#7" y="10.855"/><use xlink:href="#8" y="13.026"/><use xlink:href="#9" y="15.197"/><use xlink:href="#10" y="17.368"/></svg><svg x="2880"><use xlink:href="#a"/><use xlink:href="#b" x="9.996" y="17.343"/><use xlink:href="#3"/><use xlink:href="#4" y="2.171"/><use xlink:href="#5" y="6.513"/><use xlink:href="#6" y="8.684"/><use xlink:href="#7" y="10.855"/><use xlink:href="#8" y="13.026"/><use xlink:href="#9" y="15.197"/><text y="19.038" class="f">[~/src]</text><text x="7.014" y="19.038" class="j">$</text><text x="9.018" y="19.038" class="h">d</text></svg><svg x="2960"><use xlink:href="#a"/><use xlink:href="#b" x="10.996" y="17.343"/><use xlink:href="#3"/><use xlink:href="#4" y="2.171"/><use xlink:href="#5" y="6.513"/><use xlink:href="#6" y="8.684"/><use xlink:href="#7" y="10.855"/><use xlink:href="#8" y="13.026"/><use xlink:href="#9" y="15.197"/><text y="19.038" class="f">[~/src]</text><text x="7.014" y="19.038" class="j">$</text><text x="9.018" y="19.038" class="j">de</text></svg><svg x="3040"><use xlink:href="#a"/><use xlink:href="#b" x="11.996" y="17.343"/><use xlink:href="#3"/><use xlink:href="#4" y="2.171"/><use xlink:href="#5" y="6.513"/><use xlink:href="#6" y="8.684"/><use xlink:href="#7" y="10.855"/><use xlink:href="#8" y="13.026"/><use xlink:href="#9" y="15.197"/><text y="19.038" class="f">[~/src]</text><text x="7.014" y="19.038" class="j">$</text><text x="9.018" y="19.038" class="j">dee</text></svg><svg x="3120"><use xlink:href="#a"/><use xlink:href="#b" x="12.996" y="17.343"/><use xlink:href="#3"/><use xlink:href="#4" y="2.171"/><use xlink:href="#5" y="6.513"/><use xlink:href="#6" y="8.684"/><use xlink:href="#7" y="10.855"/><use xlink:href="#8" y="13.026"/><use xlink:href="#9" y="15.197"/><text y="19.038" class="f">[~/src]</text><text x="7.014" y="19.038" class="j">$</text><text x="9.018" y="19.038" class="j">deep</text></svg><svg x="3200"><use xlink:href="#a"/><use xlink:href="#b" x="13.996" y="17.343"/><use xlink:href="#3"/><use xlink:href="#4" y="2.171"/><use xlink:href="#5" y="6.513"/><use xlink:href="#6" y="8.684"/><use xlink:href="#7" y="10.855"/><use xlink:href="#8" y="13.026"/><use xlink:href="#9" y="15.197"/><text y="19.038" class="f">[~/src]</text><text x="7.014" y="19.038" class="j">$</text><text x="9.018" y="19.038" class="j">deepc</text></svg><svg x="3280"><use xlink:href="#a"/><use xlink:href="#b" x="14.996" y="17.343"/><use xlink:href="#3"/><use xlink:href="#4" y="2.171"/><use xlink:href="#5" y="6.513"/><use xlink:href="#6" y="8.684"/><use xlink:href="#7" y="10.855"/><use xlink:href="#8" y="13.026"/><use xlink:href="#9" y="15.197"/><text y="19.038" class="f">[~/src]</text><text x="7.014" y="19.038" class="j">$</text><text x="9.018" y="19.038" class="j">deepcl</text></svg><svg x="3360"><use xlink:href="#a"/><use xlink:href="#b" x="15.996" y="17.343"/><use xlink:href="#3"/><use xlink:href="#4" y="2.171"/><use xlink:href="#5" y="6.513"/><use xlink:href="#6" y="8.684"/><use xlink:href="#7" y="10.855"/><use xlink:href="#8" y="13.026"/><use xlink:href="#9" y="15.197"/><text y="19.038" class="f">[~/src]</text><text x="7.014" y="19.038" class="j">$</text><text x="9.018" y="19.038" class="j">deepcle</text></svg><svg x="3440"><use xlink:href="#a"/><use xlink:href="#b" x="16.996" y="17.343"/><use xlink:href="#3"/><use xlink:href="#4" y="2.171"/><use xlink:href="#5" y="6.513"/><use xlink:href="#6" y="8.684"/><use xlink:href="#7" y="10.855"/><use xlink:href="#8" y="13.026"/><use xlink:href="#9" y="15.197"/><text y="19.038" class="f">[~/src]</text><text x="7.014" y="19.038" class="j">$</text><text x="9.018" y="19.038" class="j">deepclea</text></svg><svg x="3520"><use xlink:href="#a"/><use xlink:href="#b" x="17.996" y="17.343"/><use xlink:href="#3"/><use xlink:href="#4" y="2.171"/><use xlink:href="#5" y="6.513"/><use xlink:href="#6" y="8.684"/><use xlink:href="#7" y="10.855"/><use xlink:href="#8" y="13.026"/><use xlink:href="#9" y="15.197"/><use xlink:href="#11" y="17.368"/></svg><svg x="3600"><use xlink:href="#a"/><use xlink:href="#b" x="18.996" y="17.343"/><use xlink:href="#3"/><use xlink:href="#4" y="2.171"/><use xlink:href="#5" y="6.513"/><use xlink:href="#6" y="8.684"/><use xlink:href="#7" y="10.855"/><use xlink:href="#8" y="13.026"/><use xlink:href="#9" y="15.197"/><use xlink:href="#11" y="17.368"/></svg><svg x="3680"><use xlink:href="#a"/><use xlink:href="#b" x="19.996" y="17.343"/><use xlink:href="#3"/><use xlink:href="#4" y="2.171"/><use xlink:href="#5" y="6.513"/><use xlink:href="#6" y="8.684"/><use xlink:href="#7" y="10.855"/><use xlink:href="#8" y="13.026"/><use xlink:href="#9" y="15.197"/><text y="19.038" class="f">[~/src]</text><text x="7.014" y="19.038" class="j">$</text><text x="9.018" y="19.038" class="h">deepclean</text><text x="19.038" y="19.038" class="f">-</text></svg><svg x="3760"><use xlink:href="#a"/><use xlink:href="#b" x="20.996" y="17.343"/><use xlink:href="#3"/><use xlink:href="#4" y="2.171"/><use xlink:href="#5" y="6.513"/><use xlink:href="#6" y="8.684"/><use xlink:href="#7" y="10.855"/><use xlink:href="#8" y="13.026"/><use xlink:href="#9" y="15.197"/><text y="19.038" class="f">[~/src]</text><text x="7.014" y="19.038" class="j">$</text><text x="9.018" y="19.038" class="h">deepclean</text><text x="19.038" y="19.038" class="f">-s</text></svg><svg x="3840"><use xlink:href="#a"/><use xlink:href="#b" x="21.996" y="17.343"/><use xlink:href="#3"/><use xlink:href="#4" y="2.171"/><use xlink:href="#5" y="6.513"/><use xlink:href="#6" y="8.684"/><use xlink:href="#7" y="10.855"/><use xlink:href="#8" y="13.026"/><use xlink:href="#9" y="15.197"/><text y="19.038" class="f">[~/src]</text><text x="7.014" y="19.038" class="j">$</text><text x="9.018" y="19.038" class="h">deepclean</text><text x="19.038" y="19.038" class="f">-so</text></svg><svg x="3920"><use xlink:href="#a"/><use xlink:href="#b" x="22.996" y="17.343"/><use xlink:href="#3"/><use xlink:href="#4" y="2.171"/><use xlink:href="#5" y="6.513"/><use xlink:href="#6" y="8.684"/><use xlink:href="#7" y="10.855"/><use xlink:href="#8" y="13.026"/><use xlink:href="#9" y="15.197"/><text y="19.038" class="f">[~/src]</text><text x="7.014" y="19.038" class="j">$</text><text x="9.018" y="19.038" class="h">deepclean</text><text x="19.038" y="19.038" class="f">-sor</text></svg><svg x="4000"><use xlink:href="#a"/><use xlink:href="#b" x="23.996" y="17.343"/><use xlink:href="#3"/><use xlink:href="#4" y="2.171"/><use xlink:href="#5" y="6.513"/><use xlink:href="#6" y="8.684"/><use xlink:href="#7" y="10.855"/><use xlink:href="#8" y="13.026"/><use xlink:href="#9" y="15.197"/><use xlink:href="#12" y="17.368"/></svg><svg x="4080"><use xlink:href="#a"/><use xlink:href="#b" x="23.996" y="17.343"/><use xlink:href="#3"/><use xlink:href="#4" y="2.171"/><use xlink:href="#5" y="6.513"/><use xlink:href="#6" y="8.684"/><use xlink:href="#7" y="10.855"/><use xlink:href="#8" y="13.026"/><use xlink:href="#9" y="15.197"/><use xlink:href="#12" y="17.368"/></svg><svg x="4160"><use xlink:href="#a"/><use xlink:href="#b" x="-.004" y="19.514"/><use xlink:href="#3"/><use xlink:href="#4" y="2.171"/><use xlink:href="#5" y="6.513"/><use xlink:href="#6" y="8.684"/><use xlink:href="#7" y="10.855"/><use xlink:href="#8" y="13.026"/><use xlink:href="#9" y="15.197"/><use xlink:href="#12" y="17.368"/></svg><svg x="4240"><use xlink:href="#a"/><use xlink:href="#b" x="-.004" y="19.514"/><use xlink:href="#3"/><use xlink:href="#4" y="2.171"/><use xlink:href="#5" y="6.513"/><use xlink:href="#6" y="8.684"/><use xlink:href="#7" y="10.855"/><use xlink:href="#8" y="13.026"/><use xlink:href="#9" y="15.197"/><use xlink:href="#12" y="17.368"/></svg><svg x="4320"><use xlink:href="#a"/><use xlink:href="#b" x="1.996" y="19.514"/><use xlink:href="#3"/><use xlink:href="#4" y="2.171"/><use xlink:href="#5" y="6.513"/><use xlink:href="#6" y="8.684"/><use xlink:href="#7" y="10.855"/><use xlink:href="#8" y="13.026"/><use xlink:href="#9" y="15.197"/><use xlink:href="#12" y="17.368"/><text y="21.209" class="i">⠋</text></svg><svg x="4400"><use xlink:href="#a"/><use xlink:href="#b" x="3.996" y="19.514"/><use xlink:href="#3"/><use xlink:href="#4" y="2.171"/><use xlink:href="#5" y="6.513"/><use xlink:href="#6" y="8.684"/><use xlink:href="#7" y="10.855"/><use xlink:href="#8" y="13.026"/><use xlink:href="#9" y="15.197"/><use xlink:href="#12" y="17.368"/><text y="21.209" class="i">⠙</text><text x="2.004" y="21.209" class="i">..</text></svg><svg x="4480"><use xlink:href="#a"/><use xlink:href="#b" x="9.996" y="19.514"/><use xlink:href="#3"/><use xlink:href="#4" y="2.171"/><use xlink:href="#5" y="6.513"/><use xlink:href="#6" y="8.684"/><use xlink:href="#7" y="10.855"/><use xlink:href="#8" y="13.026"/><use xlink:href="#9" y="15.197"/><use xlink:href="#12" y="17.368"/><text y="21.209" class="i">⠹</text><text x="2.004" y="21.209" class="i">........</text></svg><svg x="4560"><use xlink:href="#a"/><use xlink:href="#b" x="13.996" y="19.514"/><use xlink:href="#3"/><use xlink:href="#4" y="2.171"/><use xlink:href="#5" y="6.513"/><use xlink:href="#6" y="8.684"/><use xlink:href="#7" y="10.855"/><use xlink:href="#8" y="13.026"/><use xlink:href="#9" y="15.197"/><use xlink:href="#12" y="17.368"/><text y="21.209" class="i">⠸</text><text x="2.004" y="21.209" class="i">............</text></svg><svg x="4640"><use xlink:href="#a"/><use xlink:href="#b" x="15.996" y="19.514"/><use xlink:href="#3"/><use xlink:href="#4" y="2.171"/><use xlink:href="#5" y="6.513"/><use xlink:href="#6" y="8.684"/><use xlink:href="#7" y="10.855"/><use xlink:href="#8" y="13.026"/><use xlink:href="#9" y="15.197"/><use xlink:href="#12" y="17.368"/><text y="21.209" class="i">⠼</text><text x="2.004" y="21.209" class="i">..............</text></svg><svg x="4720"><use xlink:href="#a"/><use xlink:href="#b" x="19.996" y="19.514"/><use xlink:href="#3"/><use xlink:href="#4" y="2.171"/><use xlink:href="#5" y="6.513"/><use xlink:href="#6" y="8.684"/><use xlink:href="#7" y="10.855"/><use xlink:href="#8" y="13.026"/><use xlink:href="#9" y="15.197"/><use xlink:href="#12" y="17.368"/><text y="21.209" class="i">⠴</text><text x="2.004" y="21.209" class="i">..................</text></svg><svg x="4800"><use xlink:href="#a"/><use xlink:href="#b" x="21.996" y="19.514"/><use xlink:href="#3"/><use xlink:href="#4" y="2.171"/><use xlink:href="#5" y="6.513"/><use xlink:href="#6" y="8.684"/><use xlink:href="#7" y="10.855"/><use xlink:href="#8" y="13.026"/><use xlink:href="#9" y="15.197"/><use xlink:href="#12" y="17.368"/><text y="21.209" class="i">⠦</text><text x="2.004" y="21.209" class="i">....................</text></svg><svg x="4880"><use xlink:href="#a"/><use xlink:href="#b" x="-.004" y="21.685"/><use xlink:href="#3"/><use xlink:href="#4" y="2.171"/><use xlink:href="#5" y="6.513"/><use xlink:href="#6" y="8.684"/><use xlink:href="#7" y="10.855"/><use xlink:href="#8" y="13.026"/><use xlink:href="#9" y="15.197"/><use xlink:href="#12" y="17.368"/><use xlink:href="#13" y="19.539"/></svg><svg x="4960"><use xlink:href="#a"/><use xlink:href="#b" x="-.004" y="58.592"/><use xlink:href="#6"/><use xlink:href="#7" y="2.171"/><use xlink:href="#8" y="4.342"/><use xlink:href="#9" y="6.513"/><use xlink:href="#12" y="8.684"/><use xlink:href="#13" y="10.855"/><use xlink:href="#14" y="13.026"/><use xlink:href="#15" y="15.197"/><use xlink:href="#16" y="17.368"/><use xlink:href="#17" y="19.539"/><use xlink:href="#18" y="21.71"/><use xlink:href="#19" y="23.881"/><use xlink:href="#20" y="26.052"/><use xlink:href="#21" y="28.223"/><use xlink:href="#22" y="30.394"/><use xlink:href="#23" y="32.565"/><use xlink:href="#24" y="34.736"/><use xlink:href="#25" y="36.907"/><use xlink:href="#26" y="39.078"/><use xlink:href="#27" y="41.249"/><use xlink:href="#28" y="43.42"/><use xlink:href="#29" y="45.591"/><use xlink:href="#30" y="47.762"/><use xlink:href="#31" y="49.933"/><use xlink:href="#32" y="52.104"/><use xlink:href="#33" y="54.275"/><use xlink:href="#34" y="56.446"/><use xlink:href="#35" y="58.617"/></svg><svg x="5040"><use xlink:href="#a"/><use xlink:href="#b" x="-.004" y="58.592"/><use xlink:href="#12"/><use xlink:href="#13" y="2.171"/><use xlink:href="#14" y="4.342"/><use xlink:href="#15" y="6.513"/><use xlink:href="#16" y="8.684"/><use xlink:href="#17" y="10.855"/><use xlink:href="#18" y="13.026"/><use xlink:href="#19" y="15.197"/><use xlink:href="#20" y="17.368"/><use xlink:href="#21" y="19.539"/><use xlink:href="#22" y="21.71"/><use xlink:href="#23" y="23.881"/><use xlink:href="#24" y="26.052"/><use xlink:href="#25" y="28.223"/><use xlink:href="#26" y="30.394"/><use xlink:href="#27" y="32.565"/><use xlink:href="#28" y="34.736"/><use xlink:href="#29" y="36.907"/><use xlink:href="#30" y="39.078"/><use xlink:href="#31" y="41.249"/><use xlink:href="#32" y="43.42"/><use xlink:href="#33" y="45.591"/><use xlink:href="#34" y="47.762"/><use xlink:href="#35" y="49.933"/><use xlink:href="#36" y="52.104"/><use xlink:href="#37" y="56.446"/></svg><svg x="5120"><use xlink:href="#a"/><use xlink:href="#b" x="-.004" y="58.592"/><use xlink:href="#12"/><use xlink:href="#13" y="2.171"/><use xlink:href="#14" y="4.342"/><use xlink:href="#15" y="6.513"/><use xlink:href="#16" y="8.684"/><use xlink:href="#17" y="10.855"/><use xlink:href="#18" y="13.026"/><use xlink:href="#19" y="15.197"/><use xlink:href="#20" y="17.368"/><use xlink:href="#21" y="19.539"/><use xlink:href="#22" y="21.71"/><use xlink:href="#23" y="23.881"/><use xlink:href="#24" y="26.052"/><use xlink:href="#25" y="28.223"/><use xlink:href="#26" y="30.394"/><use xlink:href="#27" y="32.565"/><use xlink:href="#28" y="34.736"/><use xlink:href="#29" y="36.907"/><use xlink:href="#30" y="39.078"/><use xlink:href="#31" y="41.249"/><use xlink:href="#32" y="43.42"/><use xlink:href="#33" y="45.591"/><use xlink:href="#34" y="47.762"/><use xlink:href="#35" y="49.933"/><use xlink:href="#36" y="52.104"/><use xlink:href="#37" y="56.446"/></svg><svg x="5200"><use xlink:href="#a"/><use xlink:href="#b" x="-.004" y="58.592"/><use xlink:href="#12"/><use xlink:href="#13" y="2.171"/><use xlink:href="#14" y="4.342"/><use xlink:href="#15" y="6.513"/><use xlink:href="#16" y="8.684"/><use xlink:href="#17" y="10.855"/><use xlink:href="#18" y="13.026"/><use xlink:href="#19" y="15.197"/><use xlink:href="#20" y="17.368"/><use xlink:href="#21" y="19.539"/><use xlink:href="#22" y="21.71"/><use xlink:href="#23" y="23.881"/><use xlink:href="#24" y="26.052"/><use xlink:href="#25" y="28.223"/><use xlink:href="#26" y="30.394"/><use xlink:href="#27" y="32.565"/><use xlink:href="#28" y="34.736"/><use xlink:href="#29" y="36.907"/><use xlink:href="#30" y="39.078"/><use xlink:href="#31" y="41.249"/><use xlink:href="#32" y="43.42"/><use xlink:href="#33" y="45.591"/><use xlink:href="#34" y="47.762"/><use xlink:href="#35" y="49.933"/><use xlink:href="#36" y="52.104"/><use xlink:href="#37" y="56.446"/></svg><svg x="5280"><use xlink:href="#a"/><use xlink:href="#b" x="-.004" y="58.592"/><use xlink:href="#12"/><use xlink:href="#13" y="2.171"/><use xlink:href="#14" y="4.342"/><use xlink:href="#15" y="6.513"/><use xlink:href="#16" y="8.684"/><use xlink:href="#17" y="10.855"/><use xlink:href="#18" y="13.026"/><use xlink:href="#19" y="15.197"/><use xlink:href="#20" y="17.368"/><use xlink:href="#21" y="19.539"/><use xlink:href="#22" y="21.71"/><use xlink:href="#23" y="23.881"/><use xlink:href="#24" y="26.052"/><use xlink:href="#25" y="28.223"/><use xlink:href="#26" y="30.394"/><use xlink:href="#27" y="32.565"/><use xlink:href="#28" y="34.736"/><use xlink:href="#29" y="36.907"/><use xlink:href="#30" y="39.078"/><use xlink:href="#31" y="41.249"/><use xlink:href="#32" y="43.42"/><use xlink:href="#33" y="45.591"/><use xlink:href="#34" y="47.762"/><use xlink:href="#35" y="49.933"/><use xlink:href="#36" y="52.104"/><use xlink:href="#37" y="56.446"/></svg><svg x="5360"><use xlink:href="#a"/><use xlink:href="#b" x="8.996" y="58.592"/><use xlink:href="#12"/><use xlink:href="#13" y="2.171"/><use xlink:href="#14" y="4.342"/><use xlink:href="#15" y="6.513"/><use xlink:href="#16" y="8.684"/><use xlink:href="#17" y="10.855"/><use xlink:href="#18" y="13.026"/><use xlink:href="#19" y="15.197"/><use xlink:href="#20" y="17.368"/><use xlink:href="#21" y="19.539"/><use xlink:href="#22" y="21.71"/><use xlink:href="#23" y="23.881"/><use xlink:href="#24" y="26.052"/><use xlink:href="#25" y="28.223"/><use xlink:href="#26" y="30.394"/><use xlink:href="#27" y="32.565"/><use xlink:href="#28" y="34.736"/><use xlink:href="#29" y="36.907"/><use xlink:href="#30" y="39.078"/><use xlink:href="#31" y="41.249"/><use xlink:href="#32" y="43.42"/><use xlink:href="#33" y="45.591"/><use xlink:href="#34" y="47.762"/><use xlink:href="#35" y="49.933"/><use xlink:href="#36" y="52.104"/><use xlink:href="#37" y="56.446"/><use xlink:href="#1" y="58.617"/></svg><svg x="5440"><use xlink:href="#a"/><use xlink:href="#b" x="8.996" y="58.592"/><use xlink:href="#12"/><use xlink:href="#13" y="2.171"/><use xlink:href="#14" y="4.342"/><use xlink:href="#15" y="6.513"/><use xlink:href="#16" y="8.684"/><use xlink:href="#17" y="10.855"/><use xlink:href="#18" y="13.026"/><use xlink:href="#19" y="15.197"/><use xlink:href="#20" y="17.368"/><use xlink:href="#21" y="19.539"/><use xlink:href="#22" y="21.71"/><use xlink:href="#23" y="23.881"/><use xlink:href="#24" y="26.052"/><use xlink:href="#25" y="28.223"/><use xlink:href="#26" y="30.394"/><use xlink:href="#27" y="32.565"/><use xlink:href="#28" y="34.736"/><use xlink:href="#29" y="36.907"/><use xlink:href="#30" y="39.078"/><use xlink:href="#31" y="41.249"/><use xlink:href="#32" y="43.42"/><use xlink:href="#33" y="45.591"/><use xlink:href="#34" y="47.762"/><use xlink:href="#35" y="49.933"/><use xlink:href="#36" y="52.104"/><use xlink:href="#37" y="56.446"/><use xlink:href="#1" y="58.617"/></svg><svg x="5520"><use xlink:href="#a"/><use xlink:href="#b" x="8.996" y="58.592"/><use xlink:href="#12"/><use xlink:href="#13" y="2.171"/><use xlink:href="#14" y="4.342"/><use xlink:href="#15" y="6.513"/><use xlink:href="#16" y="8.684"/><use xlink:href="#17" y="10.855"/><use xlink:href="#18" y="13.026"/><use xlink:href="#19" y="15.197"/><use xlink:href="#20" y="17.368"/><use xlink:href="#21" y="19.539"/><use xlink:href="#22" y="21.71"/><use xlink:href="#23" y="23.881"/><use xlink:href="#24" y="26.052"/><use xlink:href="#25" y="28.223"/><use xlink:href="#26" y="30.394"/><use xlink:href="#27" y="32.565"/><use xlink:href="#28" y="34.736"/><use xlink:href="#29" y="36.907"/><use xlink:href="#30" y="39.078"/><use xlink:href="#31" y="41.249"/><use xlink:href="#32" y="43.42"/><use xlink:href="#33" y="45.591"/><use xlink:href="#34" y="47.762"/><use xlink:href="#35" y="49.933"/><use xlink:href="#36" y="52.104"/><use xlink:href="#37" y="56.446"/><use xlink:href="#1" y="58.617"/></svg><svg x="5600"><use xlink:href="#a"/><use xlink:href="#b" x="9.996" y="58.592"/><use xlink:href="#12"/><use xlink:href="#13" y="2.171"/><use xlink:href="#14" y="4.342"/><use xlink:href="#15" y="6.513"/><use xlink:href="#16" y="8.684"/><use xlink:href="#17" y="10.855"/><use xlink:href="#18" y="13.026"/><use xlink:href="#19" y="15.197"/><use xlink:href="#20" y="17.368"/><use xlink:href="#21" y="19.539"/><use xlink:href="#22" y="21.71"/><use xlink:href="#23" y="23.881"/><use xlink:href="#24" y="26.052"/><use xlink:href="#25" y="28.223"/><use xlink:href="#26" y="30.394"/><use xlink:href="#27" y="32.565"/><use xlink:href="#28" y="34.736"/><use xlink:href="#29" y="36.907"/><use xlink:href="#30" y="39.078"/><use xlink:href="#31" y="41.249"/><use xlink:href="#32" y="43.42"/><use xlink:href="#33" y="45.591"/><use xlink:href="#34" y="47.762"/><use xlink:href="#35" y="49.933"/><use xlink:href="#36" y="52.104"/><use xlink:href="#37" y="56.446"/><text y="60.287" class="f">[~/src]</text><text x="7.014" y="60.287" class="g">$</text><text x="9.018" y="60.287" class="j">c</text></svg><svg x="5680"><use xlink:href="#a"/><use xlink:href="#b" x="10.996" y="58.592"/><use xlink:href="#12"/><use xlink:href="#13" y="2.171"/><use xlink:href="#14" y="4.342"/><use xlink:href="#15" y="6.513"/><use xlink:href="#16" y="8.684"/><use xlink:href="#17" y="10.855"/><use xlink:href="#18" y="13.026"/><use xlink:href="#19" y="15.197"/><use xlink:href="#20" y="17.368"/><use xlink:href="#21" y="19.539"/><use xlink:href="#22" y="21.71"/><use xlink:href="#23" y="23.881"/><use xlink:href="#24" y="26.052"/><use xlink:href="#25" y="28.223"/><use xlink:href="#26" y="30.394"/><use xlink:href="#27" y="32.565"/><use xlink:href="#28" y="34.736"/><use xlink:href="#29" y="36.907"/><use xlink:href="#30" y="39.078"/><use xlink:href="#31" y="41.249"/><use xlink:href="#32" y="43.42"/><use xlink:href="#33" y="45.591"/><use xlink:href="#34" y="47.762"/><use xlink:href="#35" y="49.933"/><use xlink:href="#36" y="52.104"/><use xlink:href="#37" y="56.446"/><text y="60.287" class="f">[~/src]</text><text x="7.014" y="60.287" class="g">$</text><text x="9.018" y="60.287" class="j">cl</text></svg><svg x="5760"><use xlink:href="#a"/><use xlink:href="#b" x="11.996" y="58.592"/><use xlink:href="#12"/><use xlink:href="#13" y="2.171"/><use xlink:href="#14" y="4.342"/><use xlink:href="#15" y="6.513"/><use xlink:href="#16" y="8.684"/><use xlink:href="#17" y="10.855"/><use xlink:href="#18" y="13.026"/><use xlink:href="#19" y="15.197"/><use xlink:href="#20" y="17.368"/><use xlink:href="#21" y="19.539"/><use xlink:href="#22" y="21.71"/><use xlink:href="#23" y="23.881"/><use xlink:href="#24" y="26.052"/><use xlink:href="#25" y="28.223"/><use xlink:href="#26" y="30.394"/><use xlink:href="#27" y="32.565"/><use xlink:href="#28" y="34.736"/><use xlink:href="#29" y="36.907"/><use xlink:href="#30" y="39.078"/><use xlink:href="#31" y="41.249"/><use xlink:href="#32" y="43.42"/><use xlink:href="#33" y="45.591"/><use xlink:href="#34" y="47.762"/><use xlink:href="#35" y="49.933"/><use xlink:href="#36" y="52.104"/><use xlink:href="#37" y="56.446"/><text y="60.287" class="f">[~/src]</text><text x="7.014" y="60.287" class="g">$</text><text x="9.018" y="60.287" class="j">cle</text></svg><svg x="5840"><use xlink:href="#a"/><use xlink:href="#b" x="12.996" y="58.592"/><use xlink:href="#12"/><use xlink:href="#13" y="2.171"/><use xlink:href="#14" y="4.342"/><use xlink:href="#15" y="6.513"/><use xlink:href="#16" y="8.684"/><use xlink:href="#17" y="10.855"/><use xlink:href="#18" y="13.026"/><use xlink:href="#19" y="15.197"/><use xlink:href="#20" y="17.368"/><use xlink:href="#21" y="19.539"/><use xlink:href="#22" y="21.71"/><use xlink:href="#23" y="23.881"/><use xlink:href="#24" y="26.052"/><use xlink:href="#25" y="28.223"/><use xlink:href="#26" y="30.394"/><use xlink:href="#27" y="32.565"/><use xlink:href="#28" y="34.736"/><use xlink:href="#29" y="36.907"/><use xlink:href="#30" y="39.078"/><use xlink:href="#31" y="41.249"/><use xlink:href="#32" y="43.42"/><use xlink:href="#33" y="45.591"/><use xlink:href="#34" y="47.762"/><use xlink:href="#35" y="49.933"/><use xlink:href="#36" y="52.104"/><use xlink:href="#37" y="56.446"/><text y="60.287" class="f">[~/src]</text><text x="7.014" y="60.287" class="g">$</text><text x="9.018" y="60.287" class="j">clea</text></svg><svg x="5920"><use xlink:href="#a"/><use xlink:href="#b" x="13.996" y="58.592"/><use xlink:href="#12"/><use xlink:href="#13" y="2.171"/><use xlink:href="#14" y="4.342"/><use xlink:href="#15" y="6.513"/><use xlink:href="#16" y="8.684"/><use xlink:href="#17" y="10.855"/><use xlink:href="#18" y="13.026"/><use xlink:href="#19" y="15.197"/><use xlink:href="#20" y="17.368"/><use xlink:href="#21" y="19.539"/><use xlink:href="#22" y="21.71"/><use xlink:href="#23" y="23.881"/><use xlink:href="#24" y="26.052"/><use xlink:href="#25" y="28.223"/><use xlink:href="#26" y="30.394"/><use xlink:href="#27" y="32.565"/><use xlink:href="#28" y="34.736"/><use xlink:href="#29" y="36.907"/><use xlink:href="#30" y="39.078"/><use xlink:href="#31" y="41.249"/><use xlink:href="#32" y="43.42"/><use xlink:href="#33" y="45.591"/><use xlink:href="#34" y="47.762"/><use xlink:href="#35" y="49.933"/><use xlink:href="#36" y="52.104"/><use xlink:href="#37" y="56.446"/><use xlink:href="#38" y="58.617"/></svg><svg x="6000"><use xlink:href="#a"/><use xlink:href="#b" x="13.996" y="58.592"/><use xlink:href="#12"/><use xlink:href="#13" y="2.171"/><use xlink:href="#14" y="4.342"/><use xlink:href="#15" y="6.513"/><use xlink:href="#16" y="8.684"/><use xlink:href="#17" y="10.855"/><use xlink:href="#18" y="13.026"/><use xlink:href="#19" y="15.197"/><use xlink:href="#20" y="17.368"/><use xlink:href="#21" y="19.539"/><use xlink:href="#22" y="21.71"/><use xlink:href="#23" y="23.881"/><use xlink:href="#24" y="26.052"/><use xlink:href="#25" y="28.223"/><use xlink:href="#26" y="30.394"/><use xlink:href="#27" y="32.565"/><use xlink:href="#28" y="34.736"/><use xlink:href="#29" y="36.907"/><use xlink:href="#30" y="39.078"/><use xlink:href="#31" y="41.249"/><use xlink:href="#32" y="43.42"/><use xlink:href="#33" y="45.591"/><use xlink:href="#34" y="47.762"/><use xlink:href="#35" y="49.933"/><use xlink:href="#36" y="52.104"/><use xlink:href="#37" y="56.446"/><use xlink:href="#38" y="58.617"/></svg><svg x="6080"><use xlink:href="#a"/><use xlink:href="#b" x="-.004" y="58.592"/><use xlink:href="#13"/><use xlink:href="#14" y="2.171"/><use xlink:href="#15" y="4.342"/><use xlink:href="#16" y="6.513"/><use xlink:href="#17" y="8.684"/><use xlink:href="#18" y="10.855"/><use xlink:href="#19" y="13.026"/><use xlink:href="#20" y="15.197"/><use xlink:href="#21" y="17.368"/><use xlink:href="#22" y="19.539"/><use xlink:href="#23" y="21.71"/><use xlink:href="#24" y="23.881"/><use xlink:href="#25" y="26.052"/><use xlink:href="#26" y="28.223"/><use xlink:href="#27" y="30.394"/><use xlink:href="#28" y="32.565"/><use xlink:href="#29" y="34.736"/><use xlink:href="#30" y="36.907"/><use xlink:href="#31" y="39.078"/><use xlink:href="#32" y="41.249"/><use xlink:href="#33" y="43.42"/><use xlink:href="#34" y="45.591"/><use xlink:href="#35" y="47.762"/><use xlink:href="#36" y="49.933"/><use xlink:href="#37" y="54.275"/><use xlink:href="#38" y="56.446"/></svg><svg x="6160"><use xlink:href="#a"/><use xlink:href="#b" x="-.004" y="58.592"/><use xlink:href="#13"/><use xlink:href="#14" y="2.171"/><use xlink:href="#15" y="4.342"/><use xlink:href="#16" y="6.513"/><use xlink:href="#17" y="8.684"/><use xlink:href="#18" y="10.855"/><use xlink:href="#19" y="13.026"/><use xlink:href="#20" y="15.197"/><use xlink:href="#21" y="17.368"/><use xlink:href="#22" y="19.539"/><use xlink:href="#23" y="21.71"/><use xlink:href="#24" y="23.881"/><use xlink:href="#25" y="26.052"/><use xlink:href="#26" y="28.223"/><use xlink:href="#27" y="30.394"/><use xlink:href="#28" y="32.565"/><use xlink:href="#29" y="34.736"/><use xlink:href="#30" y="36.907"/><use xlink:href="#31" y="39.078"/><use xlink:href="#32" y="41.249"/><use xlink:href="#33" y="43.42"/><use xlink:href="#34" y="45.591"/><use xlink:href="#35" y="47.762"/><use xlink:href="#36" y="49.933"/><use xlink:href="#37" y="54.275"/><use xlink:href="#38" y="56.446"/></svg><svg x="6240"><use xlink:href="#a"/><use xlink:href="#b" x="-.004"/></svg><svg x="6320"><use xlink:href="#a"/><use xlink:href="#b" x="-.004"/></svg><svg x="6400"><use xlink:href="#a"/><use xlink:href="#b" x="-.004"/></svg><svg x="6480"><use xlink:href="#a"/><use xlink:href="#b" x="-.004"/></svg><svg x="6560"><use xlink:href="#a"/><use xlink:href="#b" x="8.996"/><use xlink:href="#1"/></svg><svg x="6640"><use xlink:href="#a"/><use xlink:href="#b" x="8.996"/><use xlink:href="#1"/></svg><svg x="6720"><use xlink:href="#a"/><use xlink:href="#b" x="8.996"/><use xlink:href="#1"/></svg><svg x="6800"><use xlink:href="#a"/><use xlink:href="#b" x="-.004" y="2.146"/><use xlink:href="#1"/></svg></svg></g></g></svg></svg>